<?xml version='1.0' encoding='UTF-8'?>
<svg width="148mm" height="148mm" version="1.1" viewBox="0 0 148 148" fill_color="#0F0F11" back_color="#FFFFFF" xmlns="http://www.w3.org/2000/svg"><path d="M8,8H12V12H8zM12,8H16V12H12zM16,8H20V12H16zM20,8H24V12H20zM24,8H28V12H24zM28,8H32V12H28zM32,8H36V12H32zM52,8H56V12H52zM64,8H68V12H64zM68,8H72V12H68zM76,8H80V12H76zM84,8H88V12H84zM88,8H92V12H88zM96,8H100V12H96zM104,8H108V12H104zM112,8H116V12H112zM116,8H120V12H116zM120,8H124V12H120zM124,8H128V12H124zM128,8H132V12H128zM132,8H136V12H132zM136,8H140V12H136zM8,12H12V16H8zM32,12H36V16H32zM56,12H60V16H56zM68,12H72V16H68zM72,12H76V16H72zM84,12H88V16H84zM88,12H92V16H88zM92,12H96V16H92zM96,12H100V16H96zM104,12H108V16H104zM112,12H116V16H112zM136,12H140V16H136zM8,16H12V20H8zM16,16H20V20H16zM20,16H24V20H20zM24,16H28V20H24zM32,16H36V20H32zM40,16H44V20H40zM44,16H48V20H44zM56,16H60V20H56zM64,16H68V20H64zM68,16H72V20H68zM76,16H80V20H76zM84,16H88V20H84zM92,16H96V20H92zM100,16H104V20H100zM104,16H108V20H104zM112,16H116V20H112zM120,16H124V20H120zM124,16H128V20H124zM128,16H132V20H128zM136,16H140V20H136zM8,20H12V24H8zM16,20H20V24H16zM20,20H24V24H20zM24,20H28V24H24zM32,20H36V24H32zM40,20H44V24H40zM48,20H52V24H48zM56,20H60V24H56zM72,20H76V24H72zM80,20H84V24H80zM84,20H88V24H84zM88,20H92V24H88zM92,20H96V24H92zM100,20H104V24H100zM104,20H108V24H104zM112,20H116V24H112zM120,20H124V24H120zM124,20H128V24H124zM128,20H132V24H128zM136,20H140V24H136zM8,24H12V28H8zM16,24H20V28H16zM20,24H24V28H20zM24,24H28V28H24zM32,24H36V28H32zM52,24H56V28H52zM60,24H64V28H60zM72,24H76V28H72zM88,24H92V28H88zM100,24H104V28H100zM112,24H116V28H112zM120,24H124V28H120zM124,24H128V28H124zM128,24H132V28H128zM136,24H140V28H136zM8,28H12V32H8zM32,28H36V32H32zM44,28H48V32H44zM64,28H68V32H64zM72,28H76V32H72zM96,28H100V32H96zM104,28H108V32H104zM112,28H116V32H112zM136,28H140V32H136zM8,32H12V36H8zM12,32H16V36H12zM16,32H20V36H16zM20,32H24V36H20zM24,32H28V36H24zM28,32H32V36H28zM32,32H36V36H32zM40,32H44V36H40zM48,32H52V36H48zM56,32H60V36H56zM64,32H68V36H64zM72,32H76V36H72zM80,32H84V36H80zM88,32H92V36H88zM96,32H100V36H96zM104,32H108V36H104zM112,32H116V36H112zM116,32H120V36H116zM120,32H124V36H120zM124,32H128V36H124zM128,32H132V36H128zM132,32H136V36H132zM136,32H140V36H136zM48,36H52V40H48zM64,36H68V40H64zM80,36H84V40H80zM96,36H100V40H96zM100,36H104V40H100zM20,40H24V44H20zM24,40H28V44H24zM32,40H36V44H32zM36,40H40V44H36zM48,40H52V44H48zM52,40H56V44H52zM56,40H60V44H56zM64,40H68V44H64zM76,40H80V44H76zM84,40H88V44H84zM100,40H104V44H100zM104,40H108V44H104zM124,40H128V44H124zM128,40H132V44H128zM8,44H12V48H8zM16,44H20V48H16zM24,44H28V48H24zM28,44H32V48H28zM40,44H44V48H40zM44,44H48V48H44zM48,44H52V48H48zM76,44H80V48H76zM84,44H88V48H84zM96,44H100V48H96zM100,44H104V48H100zM108,44H112V48H108zM116,44H120V48H116zM120,44H124V48H120zM124,44H128V48H124zM128,44H132V48H128zM8,48H12V52H8zM20,48H24V52H20zM32,48H36V52H32zM48,48H52V52H48zM68,48H72V52H68zM72,48H76V52H72zM76,48H80V52H76zM80,48H84V52H80zM92,48H96V52H92zM100,48H104V52H100zM104,48H108V52H104zM108,48H112V52H108zM116,48H120V52H116zM124,48H128V52H124zM128,48H132V52H128zM132,48H136V52H132zM136,48H140V52H136zM12,52H16V56H12zM16,52H20V56H16zM24,52H28V56H24zM28,52H32V56H28zM36,52H40V56H36zM40,52H44V56H40zM44,52H48V56H44zM48,52H52V56H48zM52,52H56V56H52zM72,52H76V56H72zM76,52H80V56H76zM80,52H84V56H80zM84,52H88V56H84zM112,52H116V56H112zM116,52H120V56H116zM120,52H124V56H120zM128,52H132V56H128zM136,52H140V56H136zM8,56H12V60H8zM16,56H20V60H16zM28,56H32V60H28zM32,56H36V60H32zM40,56H44V60H40zM44,56H48V60H44zM52,56H56V60H52zM56,56H60V60H56zM60,56H64V60H60zM64,56H68V60H64zM68,56H72V60H68zM72,56H76V60H72zM80,56H84V60H80zM84,56H88V60H84zM88,56H92V60H88zM92,56H96V60H92zM96,56H100V60H96zM100,56H104V60H100zM104,56H108V60H104zM112,56H116V60H112zM120,56H124V60H120zM124,56H128V60H124zM132,56H136V60H132zM136,56H140V60H136zM8,60H12V64H8zM20,60H24V64H20zM40,60H44V64H40zM44,60H48V64H44zM48,60H52V64H48zM56,60H60V64H56zM60,60H64V64H60zM64,60H68V64H64zM68,60H72V64H68zM76,60H80V64H76zM84,60H88V64H84zM88,60H92V64H88zM92,60H96V64H92zM96,60H100V64H96zM100,60H104V64H100zM104,60H108V64H104zM108,60H112V64H108zM128,60H132V64H128zM132,60H136V64H132zM16,64H20V68H16zM32,64H36V68H32zM36,64H40V68H36zM40,64H44V68H40zM52,64H56V68H52zM56,64H60V68H56zM60,64H64V68H60zM68,64H72V68H68zM80,64H84V68H80zM88,64H92V68H88zM108,64H112V68H108zM120,64H124V68H120zM124,64H128V68H124zM128,64H132V68H128zM8,68H12V72H8zM16,68H20V72H16zM20,68H24V72H20zM24,68H28V72H24zM28,68H32V72H28zM36,68H40V72H36zM40,68H44V72H40zM44,68H48V72H44zM52,68H56V72H52zM64,68H68V72H64zM68,68H72V72H68zM72,68H76V72H72zM76,68H80V72H76zM80,68H84V72H80zM84,68H88V72H84zM88,68H92V72H88zM104,68H108V72H104zM120,68H124V72H120zM128,68H132V72H128zM132,68H136V72H132zM136,68H140V72H136zM8,72H12V76H8zM12,72H16V76H12zM20,72H24V76H20zM28,72H32V76H28zM32,72H36V76H32zM36,72H40V76H36zM40,72H44V76H40zM60,72H64V76H60zM64,72H68V76H64zM68,72H72V76H68zM72,72H76V76H72zM76,72H80V76H76zM80,72H84V76H80zM84,72H88V76H84zM88,72H92V76H88zM108,72H112V76H108zM112,72H116V76H112zM120,72H124V76H120zM128,72H132V76H128zM8,76H12V80H8zM12,76H16V80H12zM16,76H20V80H16zM20,76H24V80H20zM36,76H40V80H36zM56,76H60V80H56zM64,76H68V80H64zM68,76H72V80H68zM72,76H76V80H72zM84,76H88V80H84zM88,76H92V80H88zM92,76H96V80H92zM96,76H100V80H96zM104,76H108V80H104zM112,76H116V80H112zM116,76H120V80H116zM120,76H124V80H120zM124,76H128V80H124zM16,80H20V84H16zM20,80H24V84H20zM28,80H32V84H28zM32,80H36V84H32zM44,80H48V84H44zM52,80H56V84H52zM56,80H60V84H56zM68,80H72V84H68zM80,80H84V84H80zM84,80H88V84H84zM88,80H92V84H88zM100,80H104V84H100zM116,80H120V84H116zM120,80H124V84H120zM124,80H128V84H124zM128,80H132V84H128zM16,84H20V88H16zM24,84H28V88H24zM48,84H52V88H48zM56,84H60V88H56zM64,84H68V88H64zM68,84H72V88H68zM72,84H76V88H72zM76,84H80V88H76zM88,84H92V88H88zM100,84H104V88H100zM104,84H108V88H104zM108,84H112V88H108zM116,84H120V88H116zM124,84H128V88H124zM128,84H132V88H128zM132,84H136V88H132zM16,88H20V92H16zM20,88H24V92H20zM24,88H28V92H24zM32,88H36V92H32zM44,88H48V92H44zM60,88H64V92H60zM64,88H68V92H64zM68,88H72V92H68zM72,88H76V92H72zM84,88H88V92H84zM112,88H116V92H112zM116,88H120V92H116zM124,88H128V92H124zM136,88H140V92H136zM8,92H12V96H8zM28,92H32V96H28zM36,92H40V96H36zM52,92H56V96H52zM56,92H60V96H56zM60,92H64V96H60zM68,92H72V96H68zM72,92H76V96H72zM80,92H84V96H80zM96,92H100V96H96zM104,92H108V96H104zM112,92H116V96H112zM120,92H124V96H120zM132,92H136V96H132zM8,96H12V100H8zM20,96H24V100H20zM24,96H28V100H24zM32,96H36V100H32zM40,96H44V100H40zM44,96H48V100H44zM48,96H52V100H48zM52,96H56V100H52zM56,96H60V100H56zM64,96H68V100H64zM72,96H76V100H72zM76,96H80V100H76zM92,96H96V100H92zM100,96H104V100H100zM112,96H116V100H112zM116,96H120V100H116zM128,96H132V100H128zM132,96H136V100H132zM136,96H140V100H136zM8,100H12V104H8zM16,100H20V104H16zM20,100H24V104H20zM24,100H28V104H24zM40,100H44V104H40zM52,100H56V104H52zM60,100H64V104H60zM64,100H68V104H64zM68,100H72V104H68zM72,100H76V104H72zM76,100H80V104H76zM80,100H84V104H80zM84,100H88V104H84zM88,100H92V104H88zM100,100H104V104H100zM104,100H108V104H104zM116,100H120V104H116zM120,100H124V104H120zM128,100H132V104H128zM132,100H136V104H132zM8,104H12V108H8zM12,104H16V108H12zM16,104H20V108H16zM20,104H24V108H20zM32,104H36V108H32zM36,104H40V108H36zM44,104H48V108H44zM52,104H56V108H52zM60,104H64V108H60zM68,104H72V108H68zM84,104H88V108H84zM88,104H92V108H88zM92,104H96V108H92zM96,104H100V108H96zM100,104H104V108H100zM104,104H108V108H104zM108,104H112V108H108zM112,104H116V108H112zM116,104H120V108H116zM120,104H124V108H120zM136,104H140V108H136zM40,108H44V112H40zM48,108H52V112H48zM56,108H60V112H56zM60,108H64V112H60zM68,108H72V112H68zM72,108H76V112H72zM84,108H88V112H84zM92,108H96V112H92zM100,108H104V112H100zM104,108H108V112H104zM120,108H124V112H120zM128,108H132V112H128zM132,108H136V112H132zM8,112H12V116H8zM12,112H16V116H12zM16,112H20V116H16zM20,112H24V116H20zM24,112H28V116H24zM28,112H32V116H28zM32,112H36V116H32zM40,112H44V116H40zM48,112H52V116H48zM52,112H56V116H52zM64,112H68V116H64zM72,112H76V116H72zM80,112H84V116H80zM84,112H88V116H84zM100,112H104V116H100zM104,112H108V116H104zM112,112H116V116H112zM120,112H124V116H120zM124,112H128V116H124zM128,112H132V116H128zM8,116H12V120H8zM32,116H36V120H32zM52,116H56V120H52zM60,116H64V120H60zM64,116H68V120H64zM68,116H72V120H68zM72,116H76V120H72zM92,116H96V120H92zM96,116H100V120H96zM100,116H104V120H100zM104,116H108V120H104zM120,116H124V120H120zM124,116H128V120H124zM128,116H132V120H128zM132,116H136V120H132zM8,120H12V124H8zM16,120H20V124H16zM20,120H24V124H20zM24,120H28V124H24zM32,120H36V124H32zM40,120H44V124H40zM44,120H48V124H44zM48,120H52V124H48zM52,120H56V124H52zM60,120H64V124H60zM72,120H76V124H72zM76,120H80V124H76zM84,120H88V124H84zM92,120H96V124H92zM96,120H100V124H96zM100,120H104V124H100zM104,120H108V124H104zM108,120H112V124H108zM112,120H116V124H112zM116,120H120V124H116zM120,120H124V124H120zM132,120H136V124H132zM8,124H12V128H8zM16,124H20V128H16zM20,124H24V128H20zM24,124H28V128H24zM32,124H36V128H32zM40,124H44V128H40zM44,124H48V128H44zM48,124H52V128H48zM56,124H60V128H56zM68,124H72V128H68zM84,124H88V128H84zM92,124H96V128H92zM96,124H100V128H96zM104,124H108V128H104zM108,124H112V128H108zM116,124H120V128H116zM132,124H136V128H132zM8,128H12V132H8zM16,128H20V132H16zM20,128H24V132H20zM24,128H28V132H24zM32,128H36V132H32zM44,128H48V132H44zM48,128H52V132H48zM56,128H60V132H56zM60,128H64V132H60zM72,128H76V132H72zM84,128H88V132H84zM88,128H92V132H88zM92,128H96V132H92zM100,128H104V132H100zM120,128H124V132H120zM124,128H128V132H124zM132,128H136V132H132zM136,128H140V132H136zM8,132H12V136H8zM32,132H36V136H32zM44,132H48V136H44zM68,132H72V136H68zM72,132H76V136H72zM88,132H92V136H88zM100,132H104V136H100zM124,132H128V136H124zM132,132H136V136H132zM136,132H140V136H136zM8,136H12V140H8zM12,136H16V140H12zM16,136H20V140H16zM20,136H24V140H20zM24,136H28V140H24zM28,136H32V140H28zM32,136H36V140H32zM56,136H60V140H56zM60,136H64V140H60zM72,136H76V140H72zM76,136H80V140H76zM80,136H84V140H80zM88,136H92V140H88zM92,136H96V140H92zM96,136H100V140H96zM100,136H104V140H100zM104,136H108V140H104zM108,136H112V140H108zM120,136H124V140H120zM128,136H132V140H128z" id="qr-path" fill="#000000" fill-opacity="1" fill-rule="nonzero" stroke="none" /></svg>