<?xml version='1.0' encoding='UTF-8'?>
<svg width="180mm" height="180mm" version="1.1" viewBox="0 0 180 180" fill_color="#0F0F11" back_color="#FFFFFF" xmlns="http://www.w3.org/2000/svg"><path d="M8,8H12V12H8zM12,8H16V12H12zM16,8H20V12H16zM20,8H24V12H20zM24,8H28V12H24zM28,8H32V12H28zM32,8H36V12H32zM44,8H48V12H44zM52,8H56V12H52zM68,8H72V12H68zM76,8H80V12H76zM80,8H84V12H80zM92,8H96V12H92zM96,8H100V12H96zM104,8H108V12H104zM112,8H116V12H112zM116,8H120V12H116zM120,8H124V12H120zM132,8H136V12H132zM136,8H140V12H136zM144,8H148V12H144zM148,8H152V12H148zM152,8H156V12H152zM156,8H160V12H156zM160,8H164V12H160zM164,8H168V12H164zM168,8H172V12H168zM8,12H12V16H8zM32,12H36V16H32zM48,12H52V16H48zM52,12H56V16H52zM56,12H60V16H56zM60,12H64V16H60zM68,12H72V16H68zM72,12H76V16H72zM80,12H84V16H80zM104,12H108V16H104zM112,12H116V16H112zM120,12H124V16H120zM128,12H132V16H128zM136,12H140V16H136zM144,12H148V16H144zM168,12H172V16H168zM8,16H12V20H8zM16,16H20V20H16zM20,16H24V20H20zM24,16H28V20H24zM32,16H36V20H32zM52,16H56V20H52zM56,16H60V20H56zM72,16H76V20H72zM80,16H84V20H80zM84,16H88V20H84zM92,16H96V20H92zM100,16H104V20H100zM108,16H112V20H108zM112,16H116V20H112zM120,16H124V20H120zM128,16H132V20H128zM136,16H140V20H136zM144,16H148V20H144zM152,16H156V20H152zM156,16H160V20H156zM160,16H164V20H160zM168,16H172V20H168zM8,20H12V24H8zM16,20H20V24H16zM20,20H24V24H20zM24,20H28V24H24zM32,20H36V24H32zM44,20H48V24H44zM56,20H60V24H56zM60,20H64V24H60zM64,20H68V24H64zM72,20H76V24H72zM76,20H80V24H76zM88,20H92V24H88zM92,20H96V24H92zM100,20H104V24H100zM104,20H108V24H104zM116,20H120V24H116zM120,20H124V24H120zM124,20H128V24H124zM144,20H148V24H144zM152,20H156V24H152zM156,20H160V24H156zM160,20H164V24H160zM168,20H172V24H168zM8,24H12V28H8zM16,24H20V28H16zM20,24H24V28H20zM24,24H28V28H24zM32,24H36V28H32zM40,24H44V28H40zM48,24H52V28H48zM52,24H56V28H52zM56,24H60V28H56zM76,24H80V28H76zM80,24H84V28H80zM84,24H88V28H84zM96,24H100V28H96zM116,24H120V28H116zM120,24H124V28H120zM132,24H136V28H132zM144,24H148V28H144zM152,24H156V28H152zM156,24H160V28H156zM160,24H164V28H160zM168,24H172V28H168zM8,28H12V32H8zM32,28H36V32H32zM48,28H52V32H48zM52,28H56V32H52zM60,28H64V32H60zM72,28H76V32H72zM76,28H80V32H76zM80,28H84V32H80zM88,28H92V32H88zM96,28H100V32H96zM100,28H104V32H100zM112,28H116V32H112zM124,28H128V32H124zM128,28H132V32H128zM132,28H136V32H132zM136,28H140V32H136zM144,28H148V32H144zM168,28H172V32H168zM8,32H12V36H8zM12,32H16V36H12zM16,32H20V36H16zM20,32H24V36H20zM24,32H28V36H24zM28,32H32V36H28zM32,32H36V36H32zM40,32H44V36H40zM48,32H52V36H48zM56,32H60V36H56zM64,32H68V36H64zM72,32H76V36H72zM80,32H84V36H80zM88,32H92V36H88zM96,32H100V36H96zM104,32H108V36H104zM112,32H116V36H112zM120,32H124V36H120zM128,32H132V36H128zM136,32H140V36H136zM144,32H148V36H144zM148,32H152V36H148zM152,32H156V36H152zM156,32H160V36H156zM160,32H164V36H160zM164,32H168V36H164zM168,32H172V36H168zM40,36H44V40H40zM44,36H48V40H44zM48,36H52V40H48zM60,36H64V40H60zM64,36H68V40H64zM68,36H72V40H68zM72,36H76V40H72zM80,36H84V40H80zM84,36H88V40H84zM88,36H92V40H88zM104,36H108V40H104zM124,36H128V40H124zM128,36H132V40H128zM132,36H136V40H132zM16,40H20V44H16zM20,40H24V44H20zM32,40H36V44H32zM36,40H40V44H36zM40,40H44V44H40zM44,40H48V44H44zM56,40H60V44H56zM60,40H64V44H60zM76,40H80V44H76zM80,40H84V44H80zM92,40H96V44H92zM100,40H104V44H100zM124,40H128V44H124zM128,40H132V44H128zM140,40H144V44H140zM144,40H148V44H144zM152,40H156V44H152zM12,44H16V48H12zM24,44H28V48H24zM28,44H32V48H28zM40,44H44V48H40zM44,44H48V48H44zM48,44H52V48H48zM52,44H56V48H52zM68,44H72V48H68zM72,44H76V48H72zM80,44H84V48H80zM88,44H92V48H88zM92,44H96V48H92zM96,44H100V48H96zM100,44H104V48H100zM120,44H124V48H120zM124,44H128V48H124zM132,44H136V48H132zM136,44H140V48H136zM144,44H148V48H144zM152,44H156V48H152zM160,44H164V48H160zM168,44H172V48H168zM8,48H12V52H8zM12,48H16V52H12zM16,48H20V52H16zM24,48H28V52H24zM28,48H32V52H28zM32,48H36V52H32zM40,48H44V52H40zM44,48H48V52H44zM48,48H52V52H48zM52,48H56V52H52zM60,48H64V52H60zM64,48H68V52H64zM72,48H76V52H72zM76,48H80V52H76zM92,48H96V52H92zM100,48H104V52H100zM108,48H112V52H108zM112,48H116V52H112zM124,48H128V52H124zM128,48H132V52H128zM152,48H156V52H152zM160,48H164V52H160zM164,48H168V52H164zM8,52H12V56H8zM12,52H16V56H12zM16,52H20V56H16zM20,52H24V56H20zM28,52H32V56H28zM36,52H40V56H36zM40,52H44V56H40zM52,52H56V56H52zM56,52H60V56H56zM60,52H64V56H60zM80,52H84V56H80zM88,52H92V56H88zM116,52H120V56H116zM128,52H132V56H128zM136,52H140V56H136zM140,52H144V56H140zM148,52H152V56H148zM152,52H156V56H152zM28,56H32V60H28zM32,56H36V60H32zM40,56H44V60H40zM52,56H56V60H52zM64,56H68V60H64zM68,56H72V60H68zM88,56H92V60H88zM92,56H96V60H92zM96,56H100V60H96zM100,56H104V60H100zM104,56H108V60H104zM108,56H112V60H108zM112,56H116V60H112zM124,56H128V60H124zM128,56H132V60H128zM132,56H136V60H132zM148,56H152V60H148zM156,56H160V60H156zM160,56H164V60H160zM8,60H12V64H8zM16,60H20V64H16zM20,60H24V64H20zM36,60H40V64H36zM40,60H44V64H40zM48,60H52V64H48zM52,60H56V64H52zM60,60H64V64H60zM64,60H68V64H64zM68,60H72V64H68zM72,60H76V64H72zM76,60H80V64H76zM80,60H84V64H80zM92,60H96V64H92zM96,60H100V64H96zM112,60H116V64H112zM120,60H124V64H120zM124,60H128V64H124zM140,60H144V64H140zM144,60H148V64H144zM156,60H160V64H156zM168,60H172V64H168zM20,64H24V68H20zM32,64H36V68H32zM36,64H40V68H36zM40,64H44V68H40zM44,64H48V68H44zM48,64H52V68H48zM56,64H60V68H56zM60,64H64V68H60zM76,64H80V68H76zM80,64H84V68H80zM88,64H92V68H88zM92,64H96V68H92zM104,64H108V68H104zM108,64H112V68H108zM112,64H116V68H112zM116,64H120V68H116zM120,64H124V68H120zM124,64H128V68H124zM132,64H136V68H132zM144,64H148V68H144zM152,64H156V68H152zM160,64H164V68H160zM164,64H168V68H164zM168,64H172V68H168zM8,68H12V72H8zM12,68H16V72H12zM16,68H20V72H16zM28,68H32V72H28zM40,68H44V72H40zM52,68H56V72H52zM56,68H60V72H56zM68,68H72V72H68zM72,68H76V72H72zM84,68H88V72H84zM100,68H104V72H100zM120,68H124V72H120zM132,68H136V72H132zM144,68H148V72H144zM148,68H152V72H148zM152,68H156V72H152zM156,68H160V72H156zM164,68H168V72H164zM8,72H12V76H8zM12,72H16V76H12zM20,72H24V76H20zM32,72H36V76H32zM36,72H40V76H36zM40,72H44V76H40zM44,72H48V76H44zM48,72H52V76H48zM56,72H60V76H56zM68,72H72V76H68zM80,72H84V76H80zM88,72H92V76H88zM92,72H96V76H92zM108,72H112V76H108zM116,72H120V76H116zM120,72H124V76H120zM124,72H128V76H124zM128,72H132V76H128zM136,72H140V76H136zM152,72H156V76H152zM156,72H160V76H156zM164,72H168V76H164zM168,72H172V76H168zM16,76H20V80H16zM20,76H24V80H20zM24,76H28V80H24zM28,76H32V80H28zM52,76H56V80H52zM64,76H68V80H64zM68,76H72V80H68zM72,76H76V80H72zM76,76H80V80H76zM84,76H88V80H84zM88,76H92V80H88zM92,76H96V80H92zM108,76H112V80H108zM112,76H116V80H112zM124,76H128V80H124zM132,76H136V80H132zM136,76H140V80H136zM140,76H144V80H140zM148,76H152V80H148zM156,76H160V80H156zM160,76H164V80H160zM12,80H16V84H12zM24,80H28V84H24zM32,80H36V84H32zM36,80H40V84H36zM40,80H44V84H40zM44,80H48V84H44zM52,80H56V84H52zM56,80H60V84H56zM72,80H76V84H72zM76,80H80V84H76zM80,80H84V84H80zM84,80H88V84H84zM92,80H96V84H92zM104,80H108V84H104zM108,80H112V84H108zM112,80H116V84H112zM116,80H120V84H116zM124,80H128V84H124zM128,80H132V84H128zM136,80H140V84H136zM140,80H144V84H140zM144,80H148V84H144zM152,80H156V84H152zM156,80H160V84H156zM20,84H24V88H20zM24,84H28V88H24zM36,84H40V88H36zM60,84H64V88H60zM64,84H68V88H64zM68,84H72V88H68zM84,84H88V88H84zM88,84H92V88H88zM96,84H100V88H96zM104,84H108V88H104zM124,84H128V88H124zM136,84H140V88H136zM140,84H144V88H140zM148,84H152V88H148zM156,84H160V88H156zM160,84H164V88H160zM8,88H12V92H8zM20,88H24V92H20zM28,88H32V92H28zM32,88H36V92H32zM40,88H44V92H40zM44,88H48V92H44zM60,88H64V92H60zM64,88H68V92H64zM68,88H72V92H68zM72,88H76V92H72zM80,88H84V92H80zM84,88H88V92H84zM104,88H108V92H104zM108,88H112V92H108zM112,88H116V92H112zM116,88H120V92H116zM120,88H124V92H120zM124,88H128V92H124zM128,88H132V92H128zM144,88H148V92H144zM148,88H152V92H148zM160,88H164V92H160zM168,88H172V92H168zM8,92H12V96H8zM12,92H16V96H12zM44,92H48V96H44zM56,92H60V96H56zM60,92H64V96H60zM76,92H80V96H76zM80,92H84V96H80zM84,92H88V96H84zM88,92H92V96H88zM104,92H108V96H104zM108,92H112V96H108zM112,92H116V96H112zM120,92H124V96H120zM128,92H132V96H128zM132,92H136V96H132zM136,92H140V96H136zM140,92H144V96H140zM144,92H148V96H144zM148,92H152V96H148zM152,92H156V96H152zM156,92H160V96H156zM164,92H168V96H164zM168,92H172V96H168zM8,96H12V100H8zM24,96H28V100H24zM32,96H36V100H32zM36,96H40V100H36zM48,96H52V100H48zM64,96H68V100H64zM68,96H72V100H68zM72,96H76V100H72zM80,96H84V100H80zM88,96H92V100H88zM92,96H96V100H92zM96,96H100V100H96zM104,96H108V100H104zM124,96H128V100H124zM140,96H144V100H140zM152,96H156V100H152zM160,96H164V100H160zM164,96H168V100H164zM8,100H12V104H8zM12,100H16V104H12zM16,100H20V104H16zM20,100H24V104H20zM40,100H44V104H40zM52,100H56V104H52zM60,100H64V104H60zM64,100H68V104H64zM68,100H72V104H68zM72,100H76V104H72zM80,100H84V104H80zM84,100H88V104H84zM88,100H92V104H88zM96,100H100V104H96zM100,100H104V104H100zM108,100H112V104H108zM112,100H116V104H112zM140,100H144V104H140zM168,100H172V104H168zM28,104H32V108H28zM32,104H36V108H32zM36,104H40V108H36zM44,104H48V108H44zM56,104H60V108H56zM68,104H72V108H68zM72,104H76V108H72zM88,104H92V108H88zM92,104H96V108H92zM124,104H128V108H124zM164,104H168V108H164zM168,104H172V108H168zM8,108H12V112H8zM12,108H16V112H12zM24,108H28V112H24zM36,108H40V112H36zM44,108H48V112H44zM48,108H52V112H48zM60,108H64V112H60zM64,108H68V112H64zM68,108H72V112H68zM72,108H76V112H72zM76,108H80V112H76zM80,108H84V112H80zM84,108H88V112H84zM96,108H100V112H96zM112,108H116V112H112zM116,108H120V112H116zM132,108H136V112H132zM136,108H140V112H136zM144,108H148V112H144zM148,108H152V112H148zM156,108H160V112H156zM160,108H164V112H160zM168,108H172V112H168zM24,112H28V116H24zM32,112H36V116H32zM40,112H44V116H40zM44,112H48V116H44zM48,112H52V116H48zM52,112H56V116H52zM56,112H60V116H56zM60,112H64V116H60zM64,112H68V116H64zM72,112H76V116H72zM80,112H84V116H80zM100,112H104V116H100zM104,112H108V116H104zM108,112H112V116H108zM120,112H124V116H120zM124,112H128V116H124zM128,112H132V116H128zM132,112H136V116H132zM136,112H140V116H136zM140,112H144V116H140zM144,112H148V116H144zM156,112H160V116H156zM164,112H168V116H164zM168,112H172V116H168zM16,116H20V120H16zM24,116H28V120H24zM36,116H40V120H36zM40,116H44V120H40zM44,116H48V120H44zM68,116H72V120H68zM72,116H76V120H72zM76,116H80V120H76zM92,116H96V120H92zM96,116H100V120H96zM100,116H104V120H100zM104,116H108V120H104zM120,116H124V120H120zM132,116H136V120H132zM136,116H140V120H136zM140,116H144V120H140zM144,116H148V120H144zM148,116H152V120H148zM152,116H156V120H152zM156,116H160V120H156zM164,116H168V120H164zM168,116H172V120H168zM8,120H12V124H8zM28,120H32V124H28zM32,120H36V124H32zM36,120H40V124H36zM40,120H44V124H40zM48,120H52V124H48zM52,120H56V124H52zM56,120H60V124H56zM64,120H68V124H64zM68,120H72V124H68zM72,120H76V124H72zM80,120H84V124H80zM92,120H96V124H92zM96,120H100V124H96zM100,120H104V124H100zM104,120H108V124H104zM108,120H112V124H108zM116,120H120V124H116zM128,120H132V124H128zM132,120H136V124H132zM140,120H144V124H140zM148,120H152V124H148zM152,120H156V124H152zM156,120H160V124H156zM164,120H168V124H164zM12,124H16V128H12zM28,124H32V128H28zM36,124H40V128H36zM40,124H44V128H40zM44,124H48V128H44zM76,124H80V128H76zM80,124H84V128H80zM84,124H88V128H84zM88,124H92V128H88zM92,124H96V128H92zM104,124H108V128H104zM112,124H116V128H112zM120,124H124V128H120zM124,124H128V128H124zM128,124H132V128H128zM136,124H140V128H136zM148,124H152V128H148zM8,128H12V132H8zM20,128H24V132H20zM24,128H28V132H24zM28,128H32V132H28zM32,128H36V132H32zM36,128H40V132H36zM48,128H52V132H48zM52,128H56V132H52zM56,128H60V132H56zM64,128H68V132H64zM76,128H80V132H76zM84,128H88V132H84zM92,128H96V132H92zM116,128H120V132H116zM120,128H124V132H120zM140,128H144V132H140zM144,128H148V132H144zM148,128H152V132H148zM152,128H156V132H152zM16,132H20V136H16zM20,132H24V136H20zM24,132H28V136H24zM36,132H40V136H36zM44,132H48V136H44zM48,132H52V136H48zM52,132H56V136H52zM72,132H76V136H72zM76,132H80V136H76zM80,132H84V136H80zM84,132H88V136H84zM96,132H100V136H96zM112,132H116V136H112zM120,132H124V136H120zM124,132H128V136H124zM132,132H136V136H132zM144,132H148V136H144zM148,132H152V136H148zM152,132H156V136H152zM156,132H160V136H156zM160,132H164V136H160zM164,132H168V136H164zM12,136H16V140H12zM16,136H20V140H16zM20,136H24V140H20zM32,136H36V140H32zM40,136H44V140H40zM44,136H48V140H44zM48,136H52V140H48zM56,136H60V140H56zM68,136H72V140H68zM76,136H80V140H76zM80,136H84V140H80zM88,136H92V140H88zM96,136H100V140H96zM100,136H104V140H100zM120,136H124V140H120zM128,136H132V140H128zM132,136H136V140H132zM136,136H140V140H136zM140,136H144V140H140zM144,136H148V140H144zM148,136H152V140H148zM152,136H156V140H152zM156,136H160V140H156zM160,136H164V140H160zM40,140H44V144H40zM44,140H48V144H44zM48,140H52V144H48zM64,140H68V144H64zM72,140H76V144H72zM84,140H88V144H84zM88,140H92V144H88zM100,140H104V144H100zM112,140H116V144H112zM116,140H120V144H116zM120,140H124V144H120zM124,140H128V144H124zM128,140H132V144H128zM136,140H140V144H136zM152,140H156V144H152zM168,140H172V144H168zM8,144H12V148H8zM12,144H16V148H12zM16,144H20V148H16zM20,144H24V148H20zM24,144H28V148H24zM28,144H32V148H28zM32,144H36V148H32zM40,144H44V148H40zM60,144H64V148H60zM76,144H80V148H76zM88,144H92V148H88zM100,144H104V148H100zM108,144H112V148H108zM112,144H116V148H112zM120,144H124V148H120zM132,144H136V148H132zM136,144H140V148H136zM144,144H148V148H144zM152,144H156V148H152zM156,144H160V148H156zM164,144H168V148H164zM8,148H12V152H8zM32,148H36V152H32zM52,148H56V152H52zM60,148H64V152H60zM64,148H68V152H64zM68,148H72V152H68zM80,148H84V152H80zM112,148H116V152H112zM116,148H120V152H116zM120,148H124V152H120zM128,148H132V152H128zM136,148H140V152H136zM152,148H156V152H152zM164,148H168V152H164zM8,152H12V156H8zM16,152H20V156H16zM20,152H24V156H20zM24,152H28V156H24zM32,152H36V156H32zM48,152H52V156H48zM60,152H64V156H60zM68,152H72V156H68zM72,152H76V156H72zM76,152H80V156H76zM92,152H96V156H92zM96,152H100V156H96zM100,152H104V156H100zM104,152H108V156H104zM108,152H112V156H108zM116,152H120V156H116zM136,152H140V156H136zM140,152H144V156H140zM144,152H148V156H144zM148,152H152V156H148zM152,152H156V156H152zM156,152H160V156H156zM160,152H164V156H160zM164,152H168V156H164zM8,156H12V160H8zM16,156H20V160H16zM20,156H24V160H20zM24,156H28V160H24zM32,156H36V160H32zM40,156H44V160H40zM60,156H64V160H60zM76,156H80V160H76zM80,156H84V160H80zM84,156H88V160H84zM88,156H92V160H88zM92,156H96V160H92zM96,156H100V160H96zM112,156H116V160H112zM116,156H120V160H116zM120,156H124V160H120zM124,156H128V160H124zM152,156H156V160H152zM156,156H160V160H156zM164,156H168V160H164zM168,156H172V160H168zM8,160H12V164H8zM16,160H20V164H16zM20,160H24V164H20zM24,160H28V164H24zM32,160H36V164H32zM40,160H44V164H40zM48,160H52V164H48zM64,160H68V164H64zM72,160H76V164H72zM80,160H84V164H80zM84,160H88V164H84zM88,160H92V164H88zM92,160H96V164H92zM96,160H100V164H96zM104,160H108V164H104zM108,160H112V164H108zM120,160H124V164H120zM128,160H132V164H128zM132,160H136V164H132zM148,160H152V164H148zM168,160H172V164H168zM8,164H12V168H8zM32,164H36V168H32zM44,164H48V168H44zM48,164H52V168H48zM52,164H56V168H52zM60,164H64V168H60zM64,164H68V168H64zM76,164H80V168H76zM80,164H84V168H80zM84,164H88V168H84zM92,164H96V168H92zM96,164H100V168H96zM116,164H120V168H116zM136,164H140V168H136zM144,164H148V168H144zM152,164H156V168H152zM156,164H160V168H156zM164,164H168V168H164zM8,168H12V172H8zM12,168H16V172H12zM16,168H20V172H16zM20,168H24V172H20zM24,168H28V172H24zM28,168H32V172H28zM32,168H36V172H32zM52,168H56V172H52zM56,168H60V172H56zM60,168H64V172H60zM68,168H72V172H68zM76,168H80V172H76zM80,168H84V172H80zM84,168H88V172H84zM88,168H92V172H88zM92,168H96V172H92zM100,168H104V172H100zM108,168H112V172H108zM128,168H132V172H128zM132,168H136V172H132zM136,168H140V172H136zM144,168H148V172H144zM156,168H160V172H156zM160,168H164V172H160zM164,168H168V172H164z" id="qr-path" fill="#000000" fill-opacity="1" fill-rule="nonzero" stroke="none" /></svg>